<?xml version="1.0" encoding="utf-8"?>
<svg version="1.1" baseProfile="full" width="14px" height="14px" viewBox="0 0 60 60" xmlns="http://www.w3.org/2000/svg">
<desc></desc>
<path fill="#FFF"
d="m 46.0,0.2 0,8.5 -8.5,0 0,5.3 8.5,0 0,8.5 5.3,0 0,-8.5 8.5,0 0,-5.3 -8.5,0 0,-8.5 -5.3,0 z m -16.4,0.1 c -5.9,0.0 -14.3,0.7 -16.8,1.8 -5.4,2.2 -8.6,7.0 -8.6,12.7 0,4.1 0.5,5.4 3.3,8.5 2.3,2.5 4.4,3.8 7.2,4.2 2.3,0.3 4.8,-0.4 5.3,0.5 -1.2,3.1 -1.2,5.2 1,7.2 -0.1,1.2 -2.6,0.3 -4.1,0.3 -4.4,0 -11.7,3.1 -14.2,6.1 -2.7,3.2 -3.3,8.4 -1.4,11.9 0.5,1.1 2.9,2.8 5.2,3.9 5.0,2.2 16.1,2.5 20.9,0.5 1.7,-0.7 4.6,-3.0 6.4,-5.0 2.6,-2.9 3.2,-4.5 3.2,-8.1 0,-4.0 -0.5,-5.0 -5,-9.8 -2.7,-2.9 -5,-5.9 -5,-6.8 0,-0.8 1.6,-3.5 3.5,-5.8 3.2,-3.9 3.5,-4.7 3.1,-9.3 -0.2,-2.7 -0.7,-5.9 -1.1,-7.1 -0.2,-0.7 -2.9,-2.6 -2.5,-3.1 0.7,-0.8 4.6,-1.0 5.6,-1.8 0,-0.6 -2.6,-0.8 -6.2,-0.8 z m -11.6,3.5 c 6.4,0 11.3,14.1 6.8,19.7 -0.9,1.2 -5.0,1.5 -7.5,0.5 -2.1,-0.8 -5.4,-8.5 -5.5,-12.6 -0.1,-4.1 2.7,-7.6 6.2,-7.6 z m 1.2,34.6 c 2.7,-0.0 5.4,0.6 7.4,2.1 5.9,4.5 6.2,11.8 0.6,14.0 -11.3,4.4 -22.3,-1.7 -18.6,-10.5 1.4,-3.5 6.0,-5.6 10.6,-5.7 z"
/>
</svg>