<?xml version="1.0" encoding="utf-8"?>
<svg version="1.1" baseProfile="full" width="14px" height="14px" viewBox="0 0 189 189" xmlns="http://www.w3.org/2000/svg">
<desc></desc>
<path fill="#FFF"
d="m 0,0 0,63 63,0 0,-63 z m 72,0 0,9 9,0 0,9 18,0 0,17 -17,0 0,-9 -9,0 0,45 L 55,71 l 0,9 9,0 0,8 -9,0 0,9 9,0 0,8 -17,0 0,-9 -9,0 0,-8 9,0 0,-18 -9,0 0,9 -18,0 0,9 -8,0 0,-18 -9,0 0,27 27,0 0,8 -18,0 0,9 27,0 0,-9 8,0 0,9 27,0 0,18 18,0 0,17 -8,0 0,-9 -9,0 0,9 9,0 0,18 9,0 0,8 -18,0 0,9 18,0 0,-9 8,0 0,-9 9,0 0,-9 9,0 0,-9 -9,0 0,-8 9,0 0,-9 9,0 0,-9 9,0 0,-27 8,0 0,9 18,0 0,-9 -9,0 0,-8 9,0 0,-9 0,0 0,-9 -45,0 0,-8 0,0 0,-9 -9,0 0,-8 9,0 0,-9 0,0 0,-8 0,0 0,-9 -9,0 0,-18 z M 126,0 l 0,63 63,0 0,-63 z M 9,9 54,9 54,54 9,54 z m 126,0 44,0 0,35 0,0 0,8 -44,0 z m -117,9 0,27 27,0 0,-27 z m 126,0 0,27 27,0 0,-27 z m -44,18 8,0 0,8 -8,0 z m -17,9 17,0 0,8 -9,0 0,9 9,0 0,8 -8,0 0,0 -8,0 z M 100,54 l 8,0 0,8 -8,0 z m 80,18 0,9 -9,0 0,9 9,0 0,-9 9,0 0,-9 z m -71,0 8,0 0,8 -8,0 z m -35,9 8,0 0,17 -8,0 z m 18,0 8,0 0,17 -8,0 z M 118,81 l 8,0 0,0 8,0 0,8 -9,0 0,9 -9,0 0,9 -9,0 0,27 -7,0 0,-18 -9,0 0,-8 9,0 0,-9 8,0 0,-9 9,0 z m 27,0 8,0 0,8 -8,0 z m 35,18 0,9 -9,0 0,9 9,0 0,-9 9,0 0,-9 z m -97,0 8,0 0,8 -8,0 z M 0,126 l 0,63 63,0 0,-9 0,0 0,-54 z m 135,9 0,9 -9,0 0,9 9,0 0,8 -9,0 0,9 -9,0 0,9 -9,0 0,9 27,0 0,-18 8,0 0,9 9,0 0,-9 8,0 0,18 9,0 0,-27 18,0 0,-27 -18,0 0,9 -8,0 0,-9 -9,0 0,9 -8,0 0,-9 z m -126,0 45,0 0,45 -45,0 z m 9,9 0,27 27,0 0,-27 z m 135,0 8,0 0,8 -8,0 z m -9,9 8,0 0,8 -8,0 z m 18,0 8,0 0,8 -8,0 z m 18,27 0,9 9,0 0,-9 z"
/>
</svg>
