<?xml version="1.0" encoding="utf-8"?>
<svg version="1.1" baseProfile="full" width="14px" height="14px" viewBox="0 0 54 54" xmlns="http://www.w3.org/2000/svg">
<desc></desc>
<path
d="M 19.2,0.3 C 17.6,0.3 16.3,1.7 16.3,3.3 c 0,1.6 1.3,2.9 2.9,2.9 l 22.8,0 c 1.6,0 2.9,-1.3 2.9,-2.9 0,-1.6 -1.3,-2.9 -2.9,-2.9 l -22.8,0 z M 21.8,8.4 c -1.6,0 -2.9,1.3 -2.9,2.9 0,1.6 1.3,2.9 2.9,2.9 l 25,0 c 1.6,0 2.9,-1.3 2.9,-2.9 0,-1.5 -1.3,-2.9 -2.9,-2.9 l -25,0 z m -8.6,8 c -1.6,0 -2.9,1.3 -2.9,2.9 0,1.6 1.3,2.9 2.9,2.9 l 24.2,0 c 1.6,0 2.9,-1.3 2.9,-2.9 0,-1.6 -1.3,-2.9 -2.9,-2.9 l -24.2,0 z m 6,8 c -1.6,0 -2.9,1.3 -2.9,2.9 0,1.6 1.3,2.9 2.9,2.9 l 19.6,0 c 1.6,0 2.9,-1.3 2.9,-2.9 0,-1.6 -1.3,-2.9 -2.9,-2.9 l -19.6,0 z m -11.9,2 c -1.6,0 -3,1.3 -3,2.9 l 0,21.4 c 0,1.6 1.3,2.9 2.9,2.9 l 39.4,0 c 1.6,0 2.9,-1.3 2.9,-2.9 l 0,-21.4 c 0,-1.6 -0.9,-2.9 -3,-2.9 -2,0 -3,1.7 -3,3 l 0,15.5 c 0,1.8 -1.5,3.3 -3.3,3.3 l -26.4,0 c -1.8,0 -3.3,-1.5 -3.3,-3.3 l 0,-15.5 c 0,-1.4 -1,-2.9 -3,-3 z m 9.9,6 c -1.6,0 -2.9,1.3 -2.9,2.9 0,1.6 1.3,2.9 2.9,2.9 l 19.6,0 c 1.6,0 2.9,-1.3 2.9,-2.9 0,-1.6 -1.3,-2.9 -2.9,-2.9 l -19.6,0 z m 0,8 c -1.6,0 -2.9,1.3 -2.9,2.9 0,1.6 1.3,2.9 2.9,2.9 l 19.6,0 c 1.6,0 2.9,-1.3 2.9,-2.9 0,-1.6 -1.3,-2.9 -2.9,-2.9 l -19.6,0 z"
/>
</svg>
