<?xml version="1.0" encoding="UTF-8" standalone="no"?>
<!-- Creator: CorelDRAW -->

<svg
   xmlns:dc="http://purl.org/dc/elements/1.1/"
   xmlns:cc="http://creativecommons.org/ns#"
   xmlns:rdf="http://www.w3.org/1999/02/22-rdf-syntax-ns#"
   xmlns:svg="http://www.w3.org/2000/svg"
   xmlns="http://www.w3.org/2000/svg"
   xmlns:sodipodi="http://sodipodi.sourceforge.net/DTD/sodipodi-0.dtd"
   xmlns:inkscape="http://www.inkscape.org/namespaces/inkscape"
   xml:space="preserve"
   width="114"
   height="114"
   style="fill-rule:evenodd"
   viewBox="0 0 32.173334 32.173334"
   id="svg2"
   sodipodi:version="0.32"
   inkscape:version="0.47 r22583"
   sodipodi:docname="Logo.svg"
   inkscape:output_extension="org.inkscape.output.svg.inkscape"
   version="1.1"><metadata
   id="metadata51"><rdf:RDF><cc:Work
       rdf:about=""><dc:format>image/svg+xml</dc:format><dc:type
         rdf:resource="http://purl.org/dc/dcmitype/StillImage" /><dc:title /></cc:Work></rdf:RDF></metadata><sodipodi:namedview
   inkscape:window-height="1058"
   inkscape:window-width="1858"
   inkscape:pageshadow="2"
   inkscape:pageopacity="0.0"
   guidetolerance="10.0"
   gridtolerance="10.0"
   objecttolerance="10.0"
   borderopacity="1.0"
   bordercolor="#666666"
   pagecolor="#ffffff"
   id="base"
   showgrid="false"
   inkscape:zoom="1.4629636"
   inkscape:cx="127.07558"
   inkscape:cy="0.17835878"
   inkscape:current-layer="Dummy_x0025_Layer_x0025_Dummy_x0025_Layer"
   inkscape:window-x="1420"
   inkscape:window-y="-8"
   inkscape:window-maximized="1" />
 <defs
   id="defs4"><inkscape:perspective
   sodipodi:type="inkscape:persp3d"
   inkscape:vp_x="0 : 526.18109 : 1"
   inkscape:vp_y="0 : 1000 : 0"
   inkscape:vp_z="744.09448 : 526.18109 : 1"
   inkscape:persp3d-origin="372.04724 : 350.78739 : 1"
   id="perspective53" />
  <style
   type="text/css"
   id="style6">
   
    .str3 {stroke:#834F28;stroke-width:0.0762}
    .str0 {stroke:#FFFCC8;stroke-width:0.0762}
    .str1 {stroke:#864A38;stroke-width:0.1764}
    .str2 {stroke:#864A38;stroke-width:0.3528}
    .fil9 {fill:none}
    .fil0 {fill:#FDFCCA}
    .fil1 {fill:#FEF1BB}
    .fil3 {fill:#FFDB9D}
    .fil2 {fill:#FFE6AC}
    .fil7 {fill:#864A38}
    .fil5 {fill:#B25B3E}
    .fil4 {fill:#BC7B4D}
    .fil6 {fill:#D8AB58}
    .fil10 {fill:#834F28;fill-rule:nonzero}
    .fil8 {fill:#864A38;fill-rule:nonzero}
   
  </style>
    <mask
   id="id0">
  <linearGradient
   id="id1"
   gradientUnits="userSpaceOnUse"
   x1="44.4048"
   y1="37.153801"
   x2="52.954399"
   y2="34.9776">
   <stop
   offset="0"
   style="stop-opacity:1; stop-color:white"
   id="stop10" />
   <stop
   offset="1"
   style="stop-opacity:0; stop-color:white"
   id="stop12" />
  </linearGradient>
     <rect
   style="fill:url(#id1)"
   x="38.019501"
   y="21.8766"
   width="21.3202"
   height="28.378201"
   id="rect14" />
    </mask>
    <mask
   id="id2">
  <linearGradient
   id="id3"
   gradientUnits="userSpaceOnUse"
   x1="52.5956"
   y1="37.341301"
   x2="45.367001"
   y2="34.060101"
   spreadMethod="reflect">
   <stop
   offset="0"
   style="stop-opacity:1; stop-color:white"
   id="stop18" />
   <stop
   offset="0.25098"
   style="stop-opacity:-96.8824; stop-color:white"
   id="stop20" />
   <stop
   offset="1"
   style="stop-opacity:0; stop-color:white"
   id="stop22" />
  </linearGradient>
     <rect
   style="fill:url(#id3)"
   x="39.984501"
   y="23.389"
   width="17.9935"
   height="24.623301"
   id="rect24" />
    </mask>
 <inkscape:perspective
   id="perspective2844"
   inkscape:persp3d-origin="0.5 : 0.33333333 : 1"
   inkscape:vp_z="1 : 0.5 : 1"
   inkscape:vp_y="0 : 1000 : 0"
   inkscape:vp_x="0 : 0.5 : 1"
   sodipodi:type="inkscape:persp3d" /><inkscape:perspective
   id="perspective3677"
   inkscape:persp3d-origin="0.5 : 0.33333333 : 1"
   inkscape:vp_z="1 : 0.5 : 1"
   inkscape:vp_y="0 : 1000 : 0"
   inkscape:vp_x="0 : 0.5 : 1"
   sodipodi:type="inkscape:persp3d" /></defs>
 <g
   id="Dummy_x0025_Layer_x0025_Dummy_x0025_Layer"
   transform="translate(-5.8879204,0.18644734)">
  <metadata
   id="CorelCorpID_0Corel-Layer" />
  
  
  
  
  
 <g
   id="g3763"
   transform="translate(-0.27281779,1.4556975)"><g
     style="fill:#002255;stroke:none"
     transform="matrix(1.0485953,0,0,1.0485953,60.798326,-2.5234642)"
     id="g2868"><path
       sodipodi:nodetypes="czcccssccszzccscccczzzccczzzccc"
       id="path2870"
       d="m -37.493384,20.297278 c 0.339877,-0.559188 0.527646,-0.971928 0.475239,-1.29172 -0.05241,-0.319793 -0.363784,-0.629175 -1.073921,-0.736962 l -1.353222,-0.110204 0,-1.51912 1.032155,-0.148386 c 1.287218,-0.185055 1.622852,-1.218668 0.604552,-2.379633 -0.285261,-0.325226 -0.819051,-0.751081 -1.140834,-1.01421 l 2.513648,0 0.05674,0.791167 c 0.0292,0.407091 0.11543,0.209064 1.127099,-0.511534 1.011668,-0.720597 2.747346,-0.845056 3.816911,0.07429 l 0.880526,0.756858 0.74542,-0.586347 c 0.499964,-0.393272 1.17424,-0.739807 2.012964,-0.739807 2.60126,0 3.171891,1.191989 3.171891,5.78884 l 0,3.113509 -1.693333,0 -1.47167,0 c 0,0 0,-1.249535 0,-2.802063 0,-1.552528 0.245566,-3.657018 -1.415405,-3.586578 -1.660971,0.07044 -1.346259,1.944405 -1.346259,3.586578 l 0,2.802063 -1.552222,0 -1.449915,0 c 0,0 -0.01725,-1.317339 0,-2.785013 0.01705,-1.450625 0.327796,-3.603235 -1.363964,-3.603628 -1.69176,-3.93e-4 -1.373003,2.154251 -1.373003,3.586577 l 0,2.802064 -2.424858,0 c 0.43273,-0.382421 1.088659,-1.285648 1.221461,-1.486741 z"
       style="fill:#002255;stroke:none" /></g><rect
     y="11.396099"
     x="9.1438847"
     height="8.7994366"
     width="3.4388602"
     id="rect3661"
     style="fill:#002255;fill-opacity:1;stroke:none" /><path
     transform="matrix(0.29593691,0,0,0.29593691,67.503372,33.085631)"
     d="m -182.84801,-83.971436 c 0,4.577321 -3.71066,8.287972 -8.28798,8.287972 -4.57732,0 -8.28797,-3.710651 -8.28797,-8.287972 0,-4.57732 3.71065,-8.287971 8.28797,-8.287971 4.57732,0 8.28798,3.710651 8.28798,8.287971 z"
     sodipodi:ry="8.2879715"
     sodipodi:rx="8.2879715"
     sodipodi:cy="-83.971436"
     sodipodi:cx="-191.13599"
     id="path3663"
     style="fill:#e80000;fill-opacity:1;fill-rule:nonzero;stroke:none"
     sodipodi:type="arc" /><path
     sodipodi:nodetypes="ccsccsssscczzc"
     id="path2870-1"
     d="m 13.455006,19.639761 0,-7.988163 c 0.753437,-0.863851 4.477402,-0.973278 5.828748,-0.05867 1.228858,0.831706 1.701005,1.641592 1.911615,2.218993 l -2.728064,0.580838 c -0.161016,-0.202251 -0.352721,-0.391753 -0.572109,-0.595871 -0.981625,-0.913304 -2.645916,-0.607807 -3.232993,0.479803 -0.564048,1.044949 -0.549161,2.272283 0.115528,3.200099 0.731446,1.020998 2.270861,0.92284 3.085626,0.137371 0.124539,-0.120061 0.432594,-0.413616 0.495263,-0.645334 l 2.802195,0.495779 c -0.103307,0.4178 -0.246082,0.94827 -1.101333,1.910621 -0.855252,0.962351 -2.396314,1.22627 -3.705725,1.222156 -1.309411,-0.0041 -1.877924,-0.100214 -2.898751,-0.957623 z"
     style="fill:#002255;fill-rule:evenodd;stroke:none" /></g><path
   style="fill:#5f8dd3;fill-opacity:1;fill-rule:nonzero;stroke:none"
   d="M 8.1345827,25.421562 C 15.974872,19.575635 26.451304,26.327626 34.662529,25.945086 35.179444,32.417398 23.834637,27.658669 19.818928,26.584677 16.095224,25.675752 12.156169,25.024186 8.1345827,25.421562 z"
   id="path3703" /><path
   sodipodi:type="star"
   style="fill:#ffe680;fill-opacity:1;fill-rule:nonzero;stroke:none"
   id="path3761"
   sodipodi:sides="106"
   sodipodi:cx="-218.46906"
   sodipodi:cy="-7.8013277"
   sodipodi:r1="13.50683"
   sodipodi:r2="35.544289"
   sodipodi:arg1="1.1801893"
   sodipodi:arg2="1.209827"
   inkscape:flatsided="false"
   inkscape:rounded="-3.469447e-18"
   inkscape:randomized="0"
   d="m -213.32633,4.6881425 7.41085,20.7641635 -8.15977,-20.4814403 6.16776,21.1667203 -6.93211,-20.9288598 4.903,21.4949268 -5.6801,-21.3027646 3.62101,21.7476326 -4.40812,-21.6018437 2.3263,21.9239487 -3.12067,-21.8250451 1.02343,22.0232571 -1.82227,-21.9715863 -0.28304,22.0452063 -0.51745,-22.0409498 -1.58851,21.9897218 0.78917,-22.0328944 -2.88841,21.8569984 2.09303,-21.9474486 -4.17816,21.6475006 3.38954,-21.7849107 -5.45323,21.3619647 4.67413,-21.5458519 -6.70915,21.0013949 5.94231,-21.2311135 -7.9415,20.5670565 7.18962,-20.8417994 -9.14596,20.0604764 8.41168,-20.3792786 -10.31829,19.4834316 9.60418,-19.8451734 -11.45438,18.8379524 10.76296,-19.2413631 -12.55024,18.1263031 11.88392,-18.5699657 -13.602,17.3509847 12.96315,-17.8333409 -14.60601,16.5147199 13.99684,-17.0340752 -15.55869,15.6204472 14.98137,-16.1749776 -16.45673,14.6713066 15.91327,-15.2590641 -17.29697,13.6706331 16.78928,-14.28955329 -18.07644,12.62194029 17.60631,-13.26984914 -18.79243,11.52891314 18.36151,-12.20353486 -19.4424,10.39538966 19.0522,-11.0943546 -20.02409,9.2253522 19.67599,-9.9462053 -20.53544,8.0229105 20.23064,-8.7631196 -20.97465,6.7922879 20.71425,-7.5492531 -21.3402,5.5378073 21.12509,-6.3088697 -21.63078,4.26387481 21.46173,-5.04632601 -21.84538,2.9749653 21.72298,-3.7660569 -21.98326,1.6756062 21.90794,-2.4725595 -22.04391,0.3703614 22.01594,-1.170377 -22.02714,-0.9361843 22.0466,0.1359163 -21.93299,-2.2394417 21.99983,1.4417325 -21.7618,-3.5348325 21.87578,2.742484 -21.51418,-4.817808 21.6749,4.033603 -21.19098,-6.08386 21.39788,5.310554 -20.79336,-7.328542 21.0457,6.56885 -20.32269,-8.547483 20.61959,7.804075 -19.78064,-9.736401 20.12106,9.011886 -19.16911,-10.891118 19.55186,10.188043 -18.49025,-12.00758 18.91397,11.328414 -17.74644,-13.081866 18.20965,12.428994 -16.94029,-14.1102 17.44137,13.485916 -16.07465,-15.088973 16.61183,14.495469 -15.15253,-16.014744 15.72392,15.454106 -14.17719,-16.884264 14.7808,16.35846 -13.15207,-17.694477 13.78576,17.205354 -12.08073,-18.442537 12.74228,17.991813 -10.96696,-19.125816 11.65406,18.715076 -9.81468,-19.741917 10.5249,19.372601 -8.62792,-20.288673 9.35877,19.96208 -7.41085,-20.764164 8.15977,20.481441 -6.16776,-21.16672 6.93211,20.928859 -4.903,-21.494927 5.6801,21.302765 -3.62101,-21.747633 4.40812,21.601844 -2.3263,-21.923949 3.12067,21.825046 -1.02343,-22.023257 1.82227,21.971586 0.28304,-22.045207 0.51745,22.04095 1.58851,-21.989722 -0.78917,22.032895 2.88841,-21.856998 -2.09303,21.947448 4.17816,-21.6475 -3.38954,21.78491 5.45323,-21.361965 -4.67413,21.545853 6.70915,-21.001395 -5.94231,21.231113 7.9415,-20.567057 -7.18962,20.8418 9.14596,-20.060476 -8.41168,20.379278 10.31829,-19.483432 -9.60418,19.845174 11.45438,-18.837952 -10.76296,19.241363 12.55024,-18.126303 -11.88392,18.569965 13.602,-17.350984 -12.96315,17.83334 14.60601,-16.51472 -13.99684,17.034076 15.55869,-15.620447 -14.98137,16.174977 16.45673,-14.671306 -15.91327,15.259064 17.29697,-13.670633 -16.78928,14.289553 18.07644,-12.62194 -17.60631,13.269849 18.79243,-11.528913 -18.36151,12.203534 19.4424,-10.395389 -19.0522,11.094354 20.02409,-9.225352 -19.67599,9.946205 20.53544,-8.02291 -20.23064,8.76312 20.97465,-6.792288 -20.71425,7.549253 21.3402,-5.537807 -21.12509,6.308869 21.63078,-4.263875 -21.46173,5.046326 21.84538,-2.974965 -21.72298,3.766057 21.98326,-1.675606 -21.90794,2.4725593 22.04391,-0.3703614 -22.01594,1.170377 22.02714,0.9361843 -22.0466,-0.1359163 21.93299,2.2394415 -21.99983,-1.4417323 21.7618,3.5348327 -21.87578,-2.7424842 21.51418,4.81780773 -21.6749,-4.03360303 21.19098,6.08386 -21.39788,-5.3105536 20.79336,7.3285423 -21.0457,-6.5688506 20.32269,8.547483 -20.61959,-7.8040745 19.78064,9.7364004 -20.12106,-9.0118861 19.16911,10.8911182 L -206.80273,-0.99462179 -188.31248,11.012959 -207.22645,-0.31545558 -189.48001,12.76641 -207.68966,0.33741624 -190.74937,14.447617 -208.19074,0.96170042 -192.1161,16.050673 -208.72792,1.5552041 -193.57539,17.569949 -209.29931,2.1158427 -195.12212,19.000107 -209.90292,2.6416469 -196.75085,20.336123 -210.53661,3.1307697 -198.45588,21.573307 -211.19816,3.5814931 -200.2312,22.70731 -211.88526,3.9922339 l 9.81468,19.7419171 -10.5249,-19.3726015 8.62792,20.2886725 -9.35877,-19.9620795 z"
   transform="matrix(0.20928071,0,0,0.20928071,76.435697,8.6127652)" /></g>
</svg>