<?xml version="1.0" encoding="UTF-8" standalone="no"?>
<!-- Created with Inkscape (http://www.inkscape.org/) -->

<svg
   xmlns:dc="http://purl.org/dc/elements/1.1/"
   xmlns:cc="http://creativecommons.org/ns#"
   xmlns:rdf="http://www.w3.org/1999/02/22-rdf-syntax-ns#"
   xmlns:svg="http://www.w3.org/2000/svg"
   xmlns="http://www.w3.org/2000/svg"
   xmlns:sodipodi="http://sodipodi.sourceforge.net/DTD/sodipodi-0.dtd"
   xmlns:inkscape="http://www.inkscape.org/namespaces/inkscape"
   width="744.09448819"
   height="1052.3622047"
   id="svg2"
   version="1.1"
   inkscape:version="0.48.2 r9819"
   sodipodi:docname="_icons.svg">
  <defs
     id="defs4">
    <rect
       height="9"
       width="9"
       id="p" />
  </defs>
  <sodipodi:namedview
     id="base"
     pagecolor="#ffffff"
     bordercolor="#666666"
     borderopacity="1.0"
     inkscape:pageopacity="0.0"
     inkscape:pageshadow="2"
     inkscape:zoom="1"
     inkscape:cx="327.37487"
     inkscape:cy="954.16208"
     inkscape:document-units="px"
     inkscape:current-layer="layer1"
     showgrid="false"
     inkscape:window-width="995"
     inkscape:window-height="742"
     inkscape:window-x="225"
     inkscape:window-y="225"
     inkscape:window-maximized="0" />
  <metadata
     id="metadata7">
    <rdf:RDF>
      <cc:Work
         rdf:about="">
        <dc:format>image/svg+xml</dc:format>
        <dc:type
           rdf:resource="http://purl.org/dc/dcmitype/StillImage" />
      </cc:Work>
    </rdf:RDF>
  </metadata>
  <g
     inkscape:label="Layer 1"
     inkscape:groupmode="layer"
     id="layer1">
    <path
       style="fill:#000000"
       d="m 131.902,81.354346 c -3.03911,-4.82123 -2.31201,-8.93778 -0.32254,-13.86082 2.63915,-6.53072 5.18555,-13.12321 7.02413,-19.9204 1.75369,-6.48337 2.57844,-12.51971 7.99421,-15.9879 4.79432,-3.07022 11.23304,-1.67449 16.24078,-1.69958 5.59697,-0.028 13.70444,-0.31138 16.77768,0.69267 3.56288,1.16401 3.27639,6.18906 2.05371,9.43758 -4.02005,10.68082 -5.35016,22.49723 -11.15306,32.38464 -2.17517,3.70622 -6.99093,1.53418 -18.30902,2.23906 -8.12177,0.50581 -16.94911,-0.73991 -17.26286,1.66537 -0.54216,4.1563 2.47189,3.69796 5.73361,3.73787 9.24717,0.11314 19.31857,0.44411 28.05306,-0.14117 3.56694,-0.23901 6.06086,-1.86914 7.43464,-5.18351 4.2527,-10.26004 6.60491,-20.2192 9.457,-30.20854 1.14382,-4.00619 2.53477,3.91263 1.5806,6.1415 -4.29708,10.03765 -4.93488,21.60746 -10.65816,31.01252 -2.30123,3.78161 -7.61719,3.26636 -11.60248,3.1929 -9.74074,-0.17955 -15.34339,0.3075 -27.4434,-0.34728 -0.81799,-0.0443 -3.70149,-0.14645 -5.5979,-3.15491 z m 39.23242,-30.25295 c 0.82308,-2.83487 -3.98416,-3.14616 -11.36765,-3.12125 -7.38349,0.0249 -11.52704,-1.46802 -12.25747,1.92362 -0.73043,3.39165 4.7915,3.44702 11.42885,3.54333 6.63736,0.0963 11.37319,0.48917 12.19627,-2.3457 z m -8.74912,-13.95118 c -8.63472,-0.34709 -10.86379,-1.07896 -12.08434,2.31826 -1.22055,3.39722 1.35385,3.3273 10.16929,3.39015 8.81544,0.0629 11.59016,0.74505 12.851,-2.60641 1.26085,-3.35146 -2.30123,-2.75491 -10.93595,-3.102 z"
       id="book"
       inkscape:connector-curvature="0"
       sodipodi:nodetypes="ssssssssssssssssssszzzzzzzzzz"
       inkscape:label="#path3033" />
    <rect
       style="fill:#000000;fill-opacity:1;stroke:none"
       id="rect3116"
       width="25.535715"
       height="5.8928571"
       x="49.471359"
       y="-40.186825"
       ry="2.9464285" />
    <path
       style="fill:#000000;fill-opacity:1;stroke:none"
       d="m 42.474236,-54.187403 c -1.63204,-0.0303 -3.01182,1.30518 -3.01182,2.9375 l 0,21.4375 c 0,1.63232 1.33643,2.9375 2.96875,2.9375 l 39.4375,0 c 1.63232,0 2.96875,-1.30518 2.96875,-2.9375 l 0,-21.4375 c 0,-1.63232 -0.97391,-2.9375 -3.06187,-2.9375 -2.08796,0 -3.06186,1.72924 -3.06186,3.01015 l 0,15.5836 c 0,1.86728 -1.50772,3.375 -3.375,3.375 l -26.47763,0 c -1.86728,0 -3.375,-1.50772 -3.375,-3.375 l 0,-15.5836 c 0,-1.43508 -1.10964,-2.97483 -3.01182,-3.01015 z"
       id="rect3118"
       inkscape:connector-curvature="0"
       sodipodi:nodetypes="ssssssszsssssss" />
    <rect
       ry="2.9464285"
       y="-48.186825"
       x="49.471359"
       height="5.8928571"
       width="25.535715"
       id="rect3124"
       style="fill:#000000;fill-opacity:1;stroke:none" />
    <rect
       style="fill:#000000;fill-opacity:1;stroke:none"
       id="rect3126"
       width="25.535715"
       height="5.8928571"
       x="51.471359"
       y="-56.186825"
       ry="2.9464285" />
    <rect
       ry="2.9464285"
       y="-64.186821"
       x="45.471359"
       height="5.8928571"
       width="30.178572"
       id="rect3128"
       style="fill:#000000;fill-opacity:1;stroke:none" />
    <rect
       style="fill:#000000;fill-opacity:1;stroke:none"
       id="rect3130"
       width="30.892859"
       height="5.8928571"
       x="54.114227"
       y="-72.186821"
       ry="2.9464285" />
    <rect
       ry="2.9464285"
       y="-80.186821"
       x="51.471359"
       height="5.8928571"
       width="28.75"
       id="rect3132"
       style="fill:#000000;fill-opacity:1;stroke:none" />
    <path
       style="fill:#000000;fill-opacity:1;stroke:none"
       d="m 49.578991,31.548631 c -1.632321,0 -2.96875,1.30518 -2.96875,2.9375 0,1.63232 1.336429,2.96875 2.96875,2.96875 l 22.84375,0 c 1.632321,0 2.9375,-1.33643 2.9375,-2.96875 0,-1.63232 -1.305179,-2.9375 -2.9375,-2.9375 l -22.84375,0 z m 2.625,8 c -1.632321,0 -2.9375,1.30518 -2.9375,2.9375 0,1.63232 1.305179,2.96875 2.9375,2.96875 l 25,0 c 1.63232,0 2.96875,-1.33643 2.96875,-2.96875 0,-1.63232 -1.33643,-2.9375 -2.96875,-2.9375 l -25,0 z m -8.625,8 c -1.632321,0 -2.96875,1.30518 -2.96875,2.9375 0,1.63232 1.336429,2.96875 2.96875,2.96875 l 24.28125,0 c 1.632321,0 2.9375,-1.33643 2.9375,-2.96875 0,-1.63232 -1.305179,-2.9375 -2.9375,-2.9375 l -24.28125,0 z m 6,8 c -1.632321,0 -2.96875,1.30518 -2.96875,2.9375 0,1.63232 1.336429,2.96875 2.96875,2.96875 l 19.625,0 c 1.632321,0 2.96875,-1.33643 2.96875,-2.96875 0,-1.63232 -1.336429,-2.9375 -2.96875,-2.9375 l -19.625,0 z m -11.9375,2 c -1.63204,-0.0303 -3.03125,1.30518 -3.03125,2.9375 l 0,21.4375 c 0,1.63232 1.33643,2.9375 2.96875,2.9375 l 39.4375,0 c 1.63232,0 2.96875,-1.30518 2.96875,-2.9375 l 0,-21.4375 c 0,-1.63232 -0.97454,-2.9375 -3.0625,-2.9375 -2.08796,0 -3.0625,1.71909 -3.0625,3 l 0,15.59375 c 0,1.86728 -1.50772,3.375 -3.375,3.375 l -26.46875,0 c -1.86728,0 -3.375,-1.50772 -3.375,-3.375 l 0,-15.59375 c 0,-1.43508 -1.09782,-2.96468 -3,-3 z m 9.9375,6 c -1.632321,0 -2.96875,1.30518 -2.96875,2.9375 0,1.63232 1.336429,2.96875 2.96875,2.96875 l 19.625,0 c 1.632321,0 2.96875,-1.33643 2.96875,-2.96875 0,-1.63232 -1.336429,-2.9375 -2.96875,-2.9375 l -19.625,0 z m 0,8 c -1.632321,0 -2.96875,1.30518 -2.96875,2.9375 0,1.63232 1.336429,2.96875 2.96875,2.96875 l 19.625,0 c 1.632321,0 2.96875,-1.33643 2.96875,-2.96875 0,-1.63232 -1.336429,-2.9375 -2.96875,-2.9375 l -19.625,0 z"
       id="stack"
       inkscape:connector-curvature="0"
       inkscape:label="#rect3135" />
    <text
       xml:space="preserve"
       style="font-size:22.24505997px;font-style:normal;font-variant:normal;font-weight:normal;font-stretch:normal;text-align:start;line-height:125%;letter-spacing:0px;word-spacing:0px;writing-mode:lr-tb;text-anchor:start;fill:#000000;fill-opacity:1;stroke:none;font-family:Tahoma;-inkscape-font-specification:Tahoma"
       x="-141.22435"
       y="-49.89959"
       id="text3150"
       sodipodi:linespacing="125%"><tspan
         sodipodi:role="line"
         id="tspan3152"
         x="-141.22435"
         y="-49.89959">rozdzielone</tspan></text>
    <path
       style="fill:#000000"
       d="m 256.12083,26.382359 c -8.17052,0.217002 -12.07893,8.95663 -10.90625,16.25 l 0,2.625 -6.03125,0 0,10.4375 6.03125,0 0,3.0625 0.3125,25.78125 12.03125,0 0,-25.78125 0,-3.0625 9.03125,0 0,-10.4375 -9.03125,0 0,-4 c -0.45443,-5.406862 6.93265,-3.822537 9.25,-4.21875 l 0,-10.65625 -10.6875,0 z"
       id="facebook"
       inkscape:connector-curvature="0"
       inkscape:label="#path3041" />
    <path
       style="fill:#000000"
       d=""
       id="path3024"
       inkscape:connector-curvature="0" />
    <path
       style="fill:#000000"
       d=""
       id="path3022"
       inkscape:connector-curvature="0" />
    <path
       style="fill:#000000"
       d=""
       id="path3020"
       inkscape:connector-curvature="0" />
    <path
       style="fill:#000000"
       d=""
       id="path3018"
       inkscape:connector-curvature="0" />
    <path
       style="fill:#000000"
       d=""
       id="path3070"
       inkscape:connector-curvature="0" />
    <path
       style="fill:#000000"
       d=""
       id="path3068"
       inkscape:connector-curvature="0" />
    <path
       style="fill:#000000"
       d="m 302.64438,73.842363 c 4.79249,-1.045926 11.40172,0.391418 12.03542,-3.452818 0,-0.465452 -1.70902,-1.854613 -3.79783,-3.087043 -2.81512,-1.660966 -5.41185,-4.946592 -5.41185,-7.069484 2.9491,0.505908 8.82969,2.152124 3.30948,-0.867848 -3.82956,-2.095051 -6.19498,-6.385736 -6.03292,-11.19743 0.72732,-0.449503 6.19418,3.736767 0,-2.705443 -1.93354,-2.010963 -1.44646,-10.506831 -0.18251,-11.287996 0.49802,-0.307799 3.42205,1.331263 6.49783,3.642361 5.91091,4.44137 15.47308,8.254414 18.13675,7.232268 0.87301,-0.335005 1.58729,-1.62526 1.58729,-2.867233 0,-3.658048 3.05313,-8.500656 6.47506,-10.270209 4.08926,-2.114642 7.97159,-2.086833 12.17574,0.08721 1.94051,1.003479 5.94901,1.770034 10.16787,-0.589114 -0.0358,2.53918 -5.35714,5.674261 -5.35714,5.674261 0,0 2.87764,-0.820021 6.58786,-2.31593 -3.09937,3.395489 -5.03029,11.260204 -5.33021,14.596962 -1.07215,11.928411 -10.52136,24.254499 -21.84001,28.489345 -8.01211,1.174595 -22.02305,1.552894 -29.02083,-4.011858 z"
       id="twitter"
       inkscape:connector-curvature="0"
       sodipodi:nodetypes="ccscscssssssscccscc"
       inkscape:label="#path3085" />
    <path
       style="fill:#000000"
       d="m 424.4375,25.750002 0,8.5625 -8.5625,0 0,5.3125 8.5625,0 0,8.5625 5.3125,0 0,-8.5625 8.5625,0 0,-5.3125 -8.5625,0 0,-8.5625 -5.3125,0 z M 408,25.875002 c -5.93099,0.03231 -14.31307,0.78637 -16.84375,1.84375 -5.46634,2.28399 -8.65625,7.0106 -8.65625,12.75 0,4.19527 0.50032,5.46263 3.3125,8.53125 2.32157,2.53328 4.48657,3.80456 7.25,4.25 2.39625,0.38625 4.85891,-0.49093 5.3125,0.59375 -1.22853,3.18501 -1.2151,5.20581 1,7.21875 -0.10792,1.23464 -2.6397,0.3125 -4.125,0.3125 -4.41103,0 -11.71733,3.14635 -14.25,6.15625 -2.71087,3.2217 -3.30718,8.41682 -1.40625,11.96875 0.59438,1.1106 2.95688,2.89634 5.25,3.9375 5.00885,2.2742 16.18101,2.56295 20.96875,0.5625 1.77843,-0.74307 4.6586,-3.00518 6.4375,-5.03125 2.62661,-2.99153 3.25,-4.51274 3.25,-8.1875 0,-4.05851 -0.51552,-5.07083 -5,-9.8125 -2.75,-2.90772 -5,-5.98643 -5,-6.84375 0,-0.85732 1.62398,-3.51733 3.59375,-5.875 3.28753,-3.93491 3.53485,-4.70086 3.125,-9.34375 -0.24557,-2.78187 -0.7627,-5.99449 -1.15625,-7.15625 -0.25752,-0.79026 -2.97008,-2.63692 -2.5,-3.1875 0.71774,-0.84067 4.6848,-1.02367 5.6875,-1.84375 0,-0.61683 -2.6914,-0.86314 -6.25,-0.84375 z m -11.625,3.5 c 6.40275,0 11.32001,14.10657 6.875,19.75 -0.97916,1.24314 -5.0936,1.54253 -7.53125,0.5625 -2.10109,-0.84472 -5.48481,-8.50177 -5.59375,-12.65625 -0.10765,-4.10573 2.79558,-7.65625 6.25,-7.65625 z m 1.25,34.625 c 2.72653,-0.04605 5.43938,0.63612 7.4375,2.1875 5.9114,4.5897 6.2299,11.8186 0.625,14.03125 -11.35588,4.48299 -22.38493,-1.70638 -18.6875,-10.5 1.48134,-3.52306 6.08079,-5.64201 10.625,-5.71875 z"
       id="google_plus"
       inkscape:connector-curvature="0"
       inkscape:label="#path3098" />
  </g>
</svg>
