<?xml version="1.0" encoding="utf-8"?>
<svg version="1.1" baseProfile="full" width="14px" height="14px" viewBox="0 0 60 60" xmlns="http://www.w3.org/2000/svg">
<desc></desc>
<path fill="#FFF"
d="m 2.4,49.3 c 4.7,-1.0 11.4,0.3 12.0,-3.4 0,-0.4 -1.7,-1.8 -3.7,-3.0 -2.8,-1.6 -5.4,-4.9 -5.4,-7.0 2.9,0.5 8.8,2.1 3.3,-0.8 -3.8,-2.0 -6.1,-6.3 -6.0,-11.1 0.7,-0.4 6.1,3.7 0,-2.7 -1.9,-2.0 -1.4,-10.5 -0.1,-11.2 0.4,-0.3 3.4,1.3 6.4,3.6 5.9,4.4 15.4,8.2 18.1,7.2 0.8,-0.3 1.5,-1.6 1.5,-2.8 0,-3.6 3.0,-8.5 6.4,-10.2 4.0,-2.1 7.9,-2.0 12.1,0.0 1.9,1.0 5.9,1.7 10.1,-0.5 -0.0,2.5 -5.3,5.6 -5.3,5.6 0,0 2.8,-0.8 6.5,-2.3 -3.0,3.3 -5.0,11.2 -5.3,14.5 -1.0,11.9 -10.5,24.2 -21.8,28.4 -8.0,1.1 -22.0,1.5 -29.0,-4.0 z"
/>
</svg>